/* XPM */
static char *epg_retract[] = {
/* columns rows colors chars-per-pixel */
"24 24 4 1 ",
"  c black",
". c None",
"X c #860C0C",
"o c #870D0D",
/* pixels */
"                        ",
"                        ",
"                        ",
"                        ",
"                        ",
"      ooooooooooooo     ",
"      ooooooooooooo     ",
"           .o.          ",
"           ooo          ",
"          .ooo.         ",
"          ooooo         ",
"         .ooooo.        ",
"         ooooooo        ",
"        .ooooooo.       ",
"        ooooooooo       ",
"       .ooooooooo.      ",
"       ooooooooooo      ",
"      ooooooooooooo     ",
"                        ",
"                        ",
"                        ",
"                        ",
"                        ",
"                        "
};
