/* XPM */
static char *epg_command[] = {
/* columns rows colors chars-per-pixel */
"48 48 92 1 ",
"  c #010100",
". c #000000",
"X c black",
"o c #000000",
"O c #000000",
"+ c black",
"@ c black",
"# c black",
"$ c black",
"% c black",
"& c black",
"* c black",
"= c black",
"- c black",
"; c #040401",
": c #080701",
"> c #110F03",
", c #181604",
"< c #221F06",
"1 c #242206",
"2 c #312D08",
"3 c #38340A",
"4 c #675F12",
"5 c #4B460D",
"6 c #554F0E",
"7 c #59520F",
"8 c #5B5410",
"9 c #635B11",
"0 c #6F6713",
"q c #726A13",
"w c #797015",
"e c #847B17",
"r c #8B8118",
"t c #958B19",
"y c #9C911B",
"u c #A69A1C",
"i c #AFA21E",
"p c #ACA01D",
"a c #B0A41E",
"s c #B1A41E",
"d c #B2A51E",
"f c #B3A61F",
"g c #BDB020",
"h c #C1B321",
"j c #C4B621",
"k c #C6B822",
"l c #CDBF23",
"z c #D1C224",
"x c #D5C524",
"c c #D5C624",
"v c #D6C624",
"b c #DACA25",
"n c #E1D126",
"m c #DDCD26",
"M c #DDCE26",
"N c #E3D327",
"B c None",
"V c #E1D126",
"C c #E2D227",
"Z c #E3D327",
"A c #E4D427",
"S c #E6D527",
"D c #E6D627",
"F c #EBDA28",
"G c #ECDB28",
"H c #EDDC28",
"J c #EEDD29",
"K c #F0DF29",
"L c #F1DF29",
"P c #F3E229",
"I c #F6E42A",
"U c #F8E62A",
"Y c #F9E72A",
"T c #F9E72B",
"R c #FEEB2B",
"E c #F9E82B",
"W c #FAE82B",
"Q c #FAE92B",
"! c #FBE92B",
"~ c #FEEC2B",
"^ c #FCEA2B",
"/ c #FDEA2B",
"( c #FDEB2B",
") c #FEEB2B",
"_ c #FEEC2B",
"` c #FFEC2B",
"' c #FFED2B",
"] c #FFED2C",
"[ c #FFEE2C",
"{ c #FFEF2C",
"} c #FFF02C",
"| c #FFF12C",
/* pixels */
"                                                ",
"                                                ",
"                                                ",
"                                                ",
"                                                ",
"                                                ",
"                                                ",
"                                                ",
"                                                ",
"                                                ",
"                       .@%#X                    ",
"                      X*>51=X                   ",
"                     O-3gYz1#                   ",
"                  .o%;7m((Y5%                   ",
"            .O#%%&=;2tP(((i>@                   ",
"          o%->2557wiD((((u,&.                   ",
"        .#;3rlJPY(((((((Y6$.                    ",
"       .%>eD(((((((((jyyy4@++++++++++++@+o      ",
"      .%,u((((((((((Y0,<<<<<<<<<<<<<<<<<,;#     ",
"      @>u((((((((((((JDDDDDDDDDDDDDDDDDDme;o    ",
"     X-q(((((((((((((((((((((((((((((((((D1@    ",
"     #1m((((((((((((((((((((((YY(((((((((a>O    ",
"    .=0(((((((((((((((((m9666666666666665,&.    ",
"    o;a(((((((((((((((((D9>;&%%%%%%%%%%&%@.     ",
"    +>z(((((((((((((((((((u:O                   ",
"    @1D(((((((((((((((((((m,+                   ",
"    @1D(((((((((((((((((Pzq;X                   ",
"    +,z(((((((((((((((((u>:#                    ",
"    o;a(((((((((((((((((mr<%                    ",
"    .=q((((((((((((((((((}t;X                   ",
"     #1m(((((((((((((((((}t;X                   ",
"     X-w((((((((((((((((ke1%                    ",
"      @>i((((((((((((((Y0>;O                    ",
"      .%,a((((((((((((((Jj3%                    ",
"       .&>rJ(((((((((((((}e-.                   ",
"        .#;3tzKY(((((((((J7*.                   ",
"          o%;,368777777773;+                    ",
"            X+$%&&&&&&&&&%O                     ",
"                                                ",
"                                                ",
"                                                ",
"                                                ",
"                                                ",
"                                                ",
"                                                ",
"                                                ",
"                                                ",
"                                                "
};
