/* XPM */
static char *epg_goal[] = {
/* columns rows colors chars-per-pixel */
"48 48 118 2 ",
"   c #000000",
".  c black",
"X  c #000000",
"o  c #000000",
"O  c black",
"+  c black",
"@  c black",
"#  c #000000",
"$  c #262626",
"%  c #010101",
"&  c #090909",
"*  c #181818",
"=  c #373737",
"-  c #272727",
";  c #30302F",
":  c #393939",
">  c #403F3F",
",  c #40403F",
"<  c #474747",
"1  c #565656",
"2  c #787878",
"3  c #656565",
"4  c #797979",
"5  c #C1C0C0",
"6  c #D4D4D4",
"7  c #898989",
"8  c #90908F",
"9  c #999999",
"0  c #A0A09F",
"q  c #A6A6A6",
"w  c #B0B0AF",
"e  c #B9B9B8",
"r  c #E5E5E5",
"t  c #C6C6C6",
"y  c #D0CFCE",
"u  c #D1D0CF",
"i  c #D4D3D2",
"p  c #D4D4D3",
"a  c #D5D4D3",
"s  c #D4D4D4",
"d  c #D5D4D4",
"f  c #D6D5D4",
"g  c #D6D5D5",
"h  c #D7D6D5",
"j  c #D6D6D6",
"k  c #D7D6D6",
"l  c #D7D7D7",
"z  c #D2D1D1",
"x  c #D8D7D6",
"c  c #D9D9D9",
"v  c #DAD9D8",
"b  c #DAD9D9",
"n  c #DBDAD9",
"m  c #DADADA",
"M  c #DBDADA",
"N  c #DBDBDA",
"B  c #DCDBDA",
"V  c #DCDBDB",
"C  c #DCDCDB",
"Z  c #DDDDDC",
"A  c #DEDDDC",
"S  c #DFDEDD",
"D  c #DFDEDE",
"F  c #DFDFDE",
"G  c #D9D8D8",
"H  c #E0DFDF",
"J  c #E0E0DF",
"K  c #E1E0E0",
"L  c #E2E1E1",
"P  c #E2E2E1",
"I  c #E3E2E2",
"U  c #E3E3E2",
"Y  c #E4E3E2",
"T  c #E4E3E3",
"R  c #E4E4E3",
"E  c #E5E4E4",
"W  c #E5E5E4",
"Q  c #E5E5E5",
"!  c #E6E5E5",
"~  c #E8E7E7",
"^  c #E8E8E7",
"/  c #EAEAE9",
"(  c #EAEAEA",
")  c #EBEAEA",
"_  c #EBEBEA",
"`  c #EBEBEB",
"'  c #ECECEB",
"]  c #EDECEC",
"[  c #EDEDED",
"{  c #EEEDED",
"}  c #EEEEED",
"|  c #EEEEEE",
" . c #EFEEEE",
".. c #E6E5E5",
"X. c #F0EFEF",
"o. c #F0F0F0",
"O. c #F1F0F0",
"+. c #F1F1F0",
"@. c #F1F1F1",
"#. c #F2F1F1",
"$. c #F2F2F1",
"%. c #F2F2F2",
"&. c #F3F2F2",
"*. c #F3F3F2",
"=. c #F4F4F4",
"-. c #F5F5F5",
";. c #F6F5F5",
":. c #F8F8F8",
">. c #F9F9F8",
",. c #F9F9F9",
"<. c #FAFAFA",
"1. c #FBFBFB",
"2. c #FCFBFB",
"3. c #FCFCFC",
"4. c #FDFDFC",
"5. c #FDFDFD",
"6. c None",
"7. c #FCFCFC",
/* pixels */
"                                                                                                ",
"                                                                                                ",
"                                                                                                ",
"                                                                                                ",
"                                                                                                ",
"                                                                                                ",
"                                                                                                ",
"                                                                                                ",
"                                                                                                ",
"                                                                                                ",
"            o + O O O O O O O O O O O O O O O O O O O O O O O O O O O O O O O O O o             ",
"          . # & * * * * * * * * * * * * * * * * * * * * * * * * * * * * * * * * & # .           ",
"          X % ; e e e t t e e e t t e e t t t e e t t e e e t t q 8 q q q 8 9 q < % X           ",
"          X % * y B P ,.,.*.z *.,.,.P z ,.,.,.G P ,.,.*.z *.,.,.y q ,.,.,.q y } ; % X           ",
"          X % & 8 B P ,.,.*.z *.,.,.P z ,.,.,.z P ,.,.*.z *.,.,.y q ,.,.,.q y t & % X           ",
"          X % & < u J ,.,.} z } ,.,.P z *.,.*.z J ,.,.} z } ,.,.t q } *.} q t 4 & % X           ",
"          X % : * w z z z z y z z z z u z z z u z z z z u z z z e 9 q q q 9 9 ; & % X           ",
"          X % 3 * 4 B } } P u P } } B z } } } z B } } P z P } } t q z z z q 7 * ; % X           ",
"          X % 7 < < H ,.,.*.z *.,.,.P z ,.,.,.x P ,.,.*.z *.,.,.y q ,.,.,.e 1 ; 4 % X           ",
"          X % q 9 * t ,.,.*.z *.,.,.P z ,.,.,.z P ,.,.*.z *.,.,.y q ,.,.,.q - 3 0 % X           ",
"          X % q B * 8 *.} P u P } } B z } } } z B } } P z P } } t q z B B 8 & q q % X           ",
"          X % q } < < z z z y z z z z z z z z u z z z z u z z z e 9 q q q 1 * t q % X           ",
"          X % 8 B 4 * z ,.} u } ,.,.P z *.,.*.z B ,.,.} z } ,.,.t q } *.P : : q 4 % X           ",
"          X % 7 P e * q ,.*.z *.,.,.P z ,.,.,.z P ,.,.*.z *.,.,.y q ,.,.z * 8 y 3 % X           ",
"          X % 9 ,.z : 1 ,.*.z *.,.,.P z ,.,.,.z P ,.,.*.z *.,.,.y q ,.,.9 & e ,.8 % X           ",
"          X % q ,.B 4 * t B y B P P z z H P H z z J P B u B P P e q e e : ; t ,.q % X           ",
"          X % q ,.B q * 8 B u G B B z z B B B z z B B B u B B B e 0 e 9 * 1 t ,.q % X           ",
"          X % q *.z z < 1 *.z o.,.,.P z ,.,.,.z P ,.,.*.z *.,.,.y q ,.9 * 7 q B q % X           ",
"          X % 8 z y P 8 - z z *.,.,.P G ,.,.,.G P ,.,.*.z *.,.,.y q *.1 < q 9 q 4 % X           ",
"          X % 7 P z P y * 8 e z P P t e B J B e t J P z e z B P q 9 e * 8 e t t 3 % X           ",
"          X % 9 ,.G P 5 * & * * * * * * * * * * * * * * * * * * * * * & e e y ,.8 % X           ",
"          X % q ,.B 5 $ # + O O O O O O O O O O O O O O O O O O O O + # < 9 y ,.q % X           ",
"          X % q ,.t : # o                                             o # ; e ,.q % X           ",
"          X % q t : # o                                                 o # < } q % X           ",
"          X % 2 = # o                                                     o # 1 7 % X           ",
"          X % & # o                                                         o # * % X           ",
"          X % % o                                                             o # % X           ",
"            @ o                                                                 o @             ",
"                                                                                                ",
"                                                                                                ",
"                                                                                                ",
"                                                                                                ",
"                                                                                                ",
"                                                                                                ",
"                                                                                                ",
"                                                                                                ",
"                                                                                                ",
"                                                                                                "
};
