/* XPM */
static char *epg_help[] = {
/* columns rows colors chars-per-pixel */
"24 24 98 2 ",
"   c #939393",
".  c black",
"X  c black",
"o  c black",
"O  c black",
"+  c black",
"@  c black",
"#  c black",
"$  c black",
"%  c black",
"&  c black",
"*  c black",
"=  c black",
"-  c #020202",
";  c black",
":  c black",
">  c black",
",  c black",
"<  c black",
"1  c #060606",
"2  c #010101",
"3  c black",
"4  c black",
"5  c black",
"6  c black",
"7  c #060606",
"8  c black",
"9  c black",
"0  c black",
"q  c black",
"w  c black",
"e  c #0C0C0C",
"r  c #151515",
"t  c black",
"y  c black",
"u  c #030303",
"i  c #0D0D0D",
"p  c #050505",
"a  c #070707",
"s  c #090909",
"d  c #0C0C0C",
"f  c #0C0C0C",
"g  c #191919",
"h  c #1E1E1E",
"j  c #0C0C0C",
"k  c #171717",
"l  c #262626",
"z  c #1C1C1C",
"x  c #121212",
"c  c #1D1D1D",
"v  c #1F1F1F",
"b  c #232323",
"n  c #1D1D1D",
"m  c #272727",
"M  c #2C2C2C",
"N  c #2B2B2B",
"B  c #3A3A3A",
"V  c #353535",
"C  c #3D3D3D",
"Z  c #4A4A4A",
"A  c #464646",
"S  c #4D4D4D",
"D  c #4A4A4A",
"F  c #515151",
"G  c #515151",
"H  c #545454",
"J  c #535353",
"K  c #5D5D5D",
"L  c #5E5E5E",
"P  c #565656",
"I  c #5E5E5E",
"U  c #5E5E5E",
"Y  c #6F6F6F",
"T  c #717171",
"R  c #747474",
"E  c #757575",
"W  c #7A7A7A",
"Q  c #818181",
"!  c #878787",
"~  c #898989",
"^  c #9B9B9B",
"/  c #999999",
"(  c #999999",
")  c #9F9F9F",
"_  c #9A9A9A",
"`  c #9D9D9D",
"'  c None",
"]  c #A1A1A1",
"[  c #A3A3A3",
"{  c #ADADAD",
"}  c #AEAEAE",
"|  c #AFAFAF",
" . c #B8B8B8",
".. c #BDBDBD",
"X. c #C1C1C1",
"o. c #C3C3C3",
"O. c #C4C4C4",
"+. c #C7C7C7",
/* pixels */
"                                                ",
"                                                ",
"                    5 w w 5                     ",
"                > b T / / R N 5                 ",
"              # N | ] Y R | O.C >               ",
"              w ! / j < 5 x ) ] s               ",
"              k ..F %     # S O.v               ",
"              z ) V       # Z ..c               ",
"              7 b w       w Q ) u               ",
"                        w I O.A >               ",
"                      9 I O.J 8                 ",
"                    > S O.H 8                   ",
"                    u ) W 9                     ",
"                    d | K %                     ",
"                    d | K %                     ",
"                    s ) H %                     ",
"                    < N h                       ",
"                                                ",
"                    % h w                       ",
"                    u ~ F #                     ",
"                    < B l                       ",
"                                                ",
"                                                ",
"                                                "
};
