/* XPM */
static char *epg_info[] = {
/* columns rows colors chars-per-pixel */
"48 48 29 1 ",
"  c black",
". c black",
"X c #000000",
"o c black",
"O c black",
"+ c black",
"@ c #050505",
"# c #181818",
"$ c #1A1A1A",
"% c #494949",
"& c #4A4949",
"* c #4A4A49",
"= c #5C5C5B",
"- c #6C6C6B",
"; c #848483",
": c #858483",
"> c #969695",
", c #979695",
"< c #ABAAAA",
"1 c #B7B6B5",
"2 c #C6C5C4",
"3 c #C7C6C5",
"4 c None",
"5 c #CFCECD",
"6 c #D0CFCE",
"7 c #D1D0CF",
"8 c #D2D1D0",
"9 c #D3D2D1",
"0 c #D4D3D2",
/* pixels */
"                                                ",
"                                                ",
"                                                ",
"                                                ",
"                                                ",
"                                                ",
"                                                ",
"       XoOOOOOOOOOOOOOOOOOOOOOOOOOOOOOOoX       ",
"       o$&&&&&&&&&&&&&&&&&&&&&&&&&&&&&&$o       ",
"       O&444444444444444444444444444444&O       ",
"       O&466666666666666666666666666664&O       ",
"       O&466666666666666666666666666664&O       ",
"       O&466666666666666666666666666664&O       ",
"       O&466666666666666666666666666664&O       ",
"       O&466666666666666666666666666664&O       ",
"       O&466666666666667776666666666664&O       ",
"       O&46666666666667,=17666666666664&O       ",
"       O&46666666666667=@,0666666666664&O       ",
"       O&466666666666671,37666666666664&O       ",
"       O&466666666666660076666666666664&O       ",
"       O&46666666666660<-37666666666664&O       ",
"       O&46666666666660:$10666666666664&O       ",
"       O&46666666666660:$10666666666664&O       ",
"       O&46666666666660:$10666666666664&O       ",
"       O&46666666666660:$10666666666664&O       ",
"       O&46666666666660:$10666666666664&O       ",
"       O&46666666666660:$17666666666664&O       ",
"       O&46666666666660:$17666666666664&O       ",
"       O&46666666666660:$10666666666664&O       ",
"       O&46666666666660:$10666666666664&O       ",
"       O&46666666666660:$10666666666664&O       ",
"       O&46666666666660<-37666666666664&O       ",
"       O&466666666666667766666666666664&O       ",
"       O&466666666666666666666666666664&O       ",
"       O&466666666666666666666666666664&O       ",
"       O&466666666666666666666666666664&O       ",
"       O&466666666666666666666666666664&O       ",
"       O&466666666666666666666666666664&O       ",
"       O&444444444444444444444444444444&O       ",
"       o$&&&&&&&&&&&&&&&&&&&&&&&&&&&&&&$o       ",
"       XoOOOOOOOOOOOOOOOOOOOOOOOOOOOOOOoX       ",
"                                                ",
"                                                ",
"                                                ",
"                                                ",
"                                                ",
"                                                ",
"                                                "
};
