/* XPM */
static char *epg_goto[] = {
/* columns rows colors chars-per-pixel */
"24 24 52 1 ",
"  c black",
". c #860707",
"X c #840A0A",
"o c #860808",
"O c #850909",
"+ c #870D0D",
"@ c #870D0D",
"# c #850909",
"$ c #870C0C",
"% c #860707",
"& c #860B0B",
"* c #860707",
"= c #860B0B",
"- c #860C0C",
"; c #870C0C",
": c #860C0C",
"> c #870D0D",
", c #870D0D",
"< c #870D0D",
"1 c #840909",
"2 c #870D0D",
"3 c #860A0A",
"4 c #850A0A",
"5 c #870D0D",
"6 c #860B0B",
"7 c #870D0D",
"8 c #860B0B",
"9 c #850A0A",
"0 c #840909",
"q c #870D0D",
"w c #860A0A",
"e c #850A0A",
"r c #870D0D",
"t c #870D0D",
"y c #840808",
"u c #840808",
"i c #850A0A",
"p c #870D0D",
"a c #870D0D",
"s c #870D0D",
"d c #870D0D",
"f c #870D0D",
"g c #870D0D",
"h c #840909",
"j c #870D0D",
"k c #870D0D",
"l c #860B0B",
"z c #860B0B",
"x c #870C0C",
"c c #870D0D",
"v c None",
"b c #870D0D",
/* pixels */
"                        ",
"                        ",
"                        ",
"                        ",
"                        ",
"    r              i    ",
"    j2            wj    ",
"    dj7          5jd    ",
"    dbb7        9bbd    ",
"    dbbjw  **  2jbjd    ",
"    dbbjjeOyu#2jjbbd    ",
"    dbbjji jj 9jjbbd    ",
"    djjjj* w1.*jjjjd    ",
"    djjj$  o.  ;djjj    ",
"    jjj>        Ojjj    ",
"    jj<          Ojj    ",
"    d>            rj    ",
"    ;              :    ",
"                        ",
"                        ",
"                        ",
"                        ",
"                        ",
"                        "
};
