/* XPM */
static char *epg_restart[] = {
/* columns rows colors chars-per-pixel */
"48 48 133 2 ",
"   c #070707",
".  c #010101",
"X  c #010101",
"o  c #000000",
"O  c #000000",
"+  c #000000",
"@  c #000000",
"#  c #000000",
"$  c #000000",
"%  c #000000",
"&  c #000000",
"*  c #000000",
"=  c #000000",
"-  c #000000",
";  c #000000",
":  c black",
">  c black",
",  c black",
"<  c black",
"1  c black",
"2  c black",
"3  c black",
"4  c black",
"5  c #000000",
"6  c black",
"7  c black",
"8  c black",
"9  c black",
"0  c black",
"q  c black",
"w  c black",
"e  c black",
"r  c black",
"t  c black",
"y  c black",
"u  c black",
"i  c black",
"p  c black",
"a  c black",
"s  c black",
"d  c black",
"f  c black",
"g  c black",
"h  c black",
"j  c black",
"k  c black",
"l  c black",
"z  c black",
"x  c black",
"c  c black",
"v  c black",
"b  c black",
"n  c black",
"m  c black",
"M  c black",
"N  c black",
"B  c black",
"V  c black",
"C  c black",
"Z  c black",
"A  c black",
"S  c black",
"D  c black",
"F  c black",
"G  c black",
"H  c black",
"J  c black",
"K  c black",
"L  c black",
"P  c #000000",
"I  c #000000",
"U  c black",
"Y  c #000000",
"T  c #000000",
"R  c #010101",
"E  c #010101",
"W  c #020202",
"Q  c #010101",
"!  c #020202",
"~  c #040404",
"^  c #040404",
"/  c #050505",
"(  c #010101",
")  c #020202",
"_  c #050505",
"`  c #070707",
"'  c #060606",
"]  c #010101",
"[  c #080808",
"{  c #090909",
"}  c #0B0B0B",
"|  c #0C0C0C",
" . c #0D0D0D",
".. c #0E0E0E",
"X. c #101010",
"o. c #111111",
"O. c #121212",
"+. c #131313",
"@. c #141414",
"#. c #151515",
"$. c #161616",
"%. c #171717",
"&. c #181818",
"*. c #191919",
"=. c #1B1B1B",
"-. c #1A1A1A",
";. c #1C1C1C",
":. c #1D1D1D",
">. c #1E1E1E",
",. c #1F1F1F",
"<. c #212121",
"1. c #202020",
"2. c #222222",
"3. c #232323",
"4. c #242424",
"5. c None",
"6. c #292929",
"7. c #2A2A2A",
"8. c #2C2C2C",
"9. c #2F2F2F",
"0. c #303030",
"q. c #313131",
"w. c #323232",
"e. c #353535",
"r. c #373737",
"t. c #393939",
"y. c #3A3A3A",
"u. c #3C3C3C",
"i. c #3D3D3D",
"p. c #3E3E3E",
"a. c #3F3F3F",
"s. c #404040",
"d. c #414141",
/* pixels */
"                                                                                                ",
"                                                                                                ",
"                                                                                                ",
"                                                                                                ",
"                                                                                                ",
"                                                                                                ",
"                                        % , 5 w t w 3 > @                                       ",
"                                  % 0 c G E ! ' { ' ! Y S j 3 @                                 ",
"                              % u S ' %.:.6.e.e.e.e.e.6.:.{ ! C 0                               ",
"                            3 Z ' :.e.p.s.s.s.p.p.p.s.s.s.p.6.%.! M >                           ",
"                          u Y %.6.p.s.p.e.3.:.%.%.%.:.3.e.p.s.p.6.{ K 0                         ",
"                        s ! :.p.s.p.3.{ ! K B c j b C P ' %.6.p.s.e.%.E t                       ",
"                      i ! 3.p.p.6.{ Y c 5 %           - w M ! %.e.s.p.:.E 0                     ",
"                    0 E 3.p.p.3.' B 2                       5 S { 6.p.6.' j                     ",
"                  - K %.p.p.3.! s @                           % b ' :.' M %                     ",
"                  j { e.s.3.! i                                 @ c ' b %                       ",
"                , Y 3.s.e.' j                                     @ 5 @                         ",
"                f { p.p.%.G -                                               -                   ",
"              % G :.s.e.' t                                               p K 0                 ",
"          0 - 3 ! 6.s.:.G w ,                                           u ! { P 3               ",
"      @ f ! C j { p.p.{ K E K 3                                       w E :.e.%.G ,             ",
"    @ j ' :.{ ! %.p.e.' ' %.%.P 5                                   5 Y :.p.s.e.{ S >           ",
"    , Y %.p.6.' :.s.6.' %.p.6.' c                                 2 P %.p.s.p.p.e.{ C %         ",
"      i ! 3.p.e.e.s.e.:.p.p.%.G ,                               , G %.p.s.p.p.p.s.e.{ M @       ",
"        s ' 6.s.p.p.p.s.p.%.K 2                               > Z { e.p.:.6.s.e.6.p.6.' c @     ",
"        @ j ' 6.s.p.p.p.:.Y 5                                 s ' 6.p.:.' 3.s.3.' 3.p.:.! 5     ",
"          @ M { e.s.p.:.E w                                   , S { %.' ' 6.s.:.! ' :.' c %     ",
"            % C { e.3.! u                                       > C E G { p.p.%.c j ! j @       ",
"              - Z ' ' p                                           - 5 Z %.p.e.' w @ 3 @         ",
"                , Z f                                               5 ! 6.s.3.Y >               ",
"                  @                                               @ C %.p.p.%.b                 ",
"                        @ 5 %                                     p ' 6.s.6.! 5                 ",
"                      @ f ! M %                                 t E 3.p.p.{ M                   ",
"                    @ c ' :.{ B >                             u E :.p.p.:.Y ,                   ",
"                    p ' 3.s.6.{ G w @                     , b ! :.p.s.3.! u                     ",
"                    3 P %.p.s.e.%.! C t > @         % 3 j P { 6.p.p.3.' f                       ",
"                      5 P %.e.s.p.6.%.' P Z b j c B G ! { 3.p.s.p.3.' j @                       ",
"                        3 G { 3.p.s.p.e.3.:.%.%.%.%.3.6.p.s.p.e.%.E p @                         ",
"                          - c ! %.6.p.s.s.s.p.p.p.s.s.s.p.e.:.' S 0                             ",
"                              5 B E { :.6.e.e.e.e.e.6.3.%.' G p %                               ",
"                                  2 s Z Y ! ' ' ' ' E K b w %                                   ",
"                                      @ > 3 w t w 5 , %                                         ",
"                                                                                                ",
"                                                                                                ",
"                                                                                                ",
"                                                                                                ",
"                                                                                                ",
"                                                                                                "
};
