/* XPM */
static char *epg_state[] = {
/* columns rows colors chars-per-pixel */
"48 48 67 1 ",
"  c #0A0A0A",
". c #010101",
"X c #000000",
"o c black",
"O c black",
"+ c black",
"@ c black",
"# c black",
"$ c black",
"% c black",
"& c black",
"* c #000000",
"= c black",
"- c #000000",
"; c #010101",
": c #030303",
"> c #030303",
", c #010101",
"< c #080807",
"1 c #010101",
"2 c #0E0E0E",
"3 c #080808",
"4 c #0B0B0B",
"5 c #131313",
"6 c #141414",
"7 c #171717",
"8 c #1D1D1D",
"9 c #1E1E1E",
"0 c #2D2D2C",
"q c #2E2E2E",
"w c #303030",
"e c #3C3B3B",
"r c #3D3D3D",
"t c #4D4D4D",
"y c #535352",
"u c #565656",
"i c #575757",
"p c #585858",
"a c #5E5E5E",
"s c #5F5F5F",
"d c #6D6C6C",
"f c #6E6D6D",
"g c #727272",
"h c #7E7E7D",
"j c #838382",
"k c #868685",
"l c None",
"z c #888787",
"x c #888887",
"c c #898888",
"v c #898988",
"b c #8A8A89",
"n c #A3A3A3",
"m c #A5A5A5",
"M c #A6A6A6",
"N c #AFAFAE",
"B c #B0AFAF",
"V c #B0B0AF",
"C c #B2B1B0",
"Z c #B4B4B4",
"A c #B5B5B5",
"S c #B8B8B8",
"D c #CDCCCB",
"F c #D4D4D4",
"G c #D8D8D8",
"H c #FEFEFE",
"J c #FFFFFF",
/* pixels */
"                                                ",
"                                                ",
"                                                ",
"                                                ",
"                                                ",
"                                                ",
"                                                ",
"                                                ",
"                                                ",
"  XooooooooooooooooooooooooooooooooooooooooooX  ",
" X*------------------------------------------*X ",
" o-uvxxxxxxxvvvvxxxxxxxqqlxxxxxxvvxvxxxxxxxvu-o ",
" o-vDCBBVVVVVVVVVVVVVVBeeBCVVVVVVCCVVVBBVBCDv-o ",
" o-hu66666666666666666633676666666666666666uh-o ",
" o-d8gSCCCCCCCCCCCCCCCCeeCCCCCCCCCCCCCCCCSg8d-o ",
" o-d8MJJJJJJJJJJJJJJJJJppJJJJJJJJJJJJJJJJJM8d-o ",
" o-d8MJJJJJJJJJJJJJJJJJuuJJJJJJJJJJJJJJJJJM8d-o ",
" o-d8MGpuuuuuuuuuuuupFJuuJFpuuuuuuuuuuuupGM8d-o ",
" o-d8MGpuuuuuuuuuuuupFJuuJFpuuuuuuuuuuuupGM8d-o ",
" o-d8MJJJJJJJJJJJJJJJJJuuJJJJJJJJJJJJJJJJJM8d-o ",
" o-d8MJJJJJJJJJJJJJJJJJuuJJJJJJJJJJJJJJJJJM8d-o ",
" o-d8MGpuuuuuuuuuuuupFJuuJFpuuuuuuuuuuuupGM8d-o ",
" o-d8MGpuuuuuuuuuuuupFJuuJFpuuuuuuuuuuuupGM8d-o ",
" o-d8MJJJJJJJJJJJJJJJJJuuJJJJJJJJJJJJJJJJJM8d-o ",
" o-d8MJJJJJJJJJJJJJJJJJuuJJJJJJJJJJJJJJJJJM8d-o ",
" o-d8MGpuuuuuuuuuuuupFJuuJFpuuuuuuuuuuuupGM8d-o ",
" o-d8MGpuuuuuuuuuuuupFJuuJFpuuuuuuuuuuuupGM8d-o ",
" o-d8MJJJJJJJJJJJJJJJJJuuJJJJJJJJJJJJJJJJJM8d-o ",
" o-d8MJJJJJJJJJJJJJJJJJuuJJJJJJJJJJJJJJJJJM8d-o ",
" o-d8MGpuuuuuuuuuuuupFJuuJFpuuuuuuuuuuuupGM8d-o ",
" o-d8MGpuuuuuuuuuuuupFJuuJFpuuuuuuuuuuuupGM8d-o ",
" o-d8MJJJJJJJJJJJJJJJJJuuJJJJJJJJJJJJJJJJJM8d-o ",
" o-d8MJJJJJJJJJJJJJJJJJppJJJJJJJJJJJJJJJJJM8d-o ",
" o-d8gSCCCCCCCCCCCCCCCCeeCCCCCCCCCCCCCCCCSg8d-o ",
" o-hu66666666666666667633666666667766666666uh-o ",
" o-vDCBVBBVVVCCVVVVVVCBeeBVVVVVVVVVVVVVVVVCDv-o ",
" o-uvxxxxxxxvxvvxxxxxljqqjlxxxxxvvxxxxxxxxxvu-o ",
" X*-----------------13666631-----------------*X ",
"  Xoooooooooooooooo@=wjvvjw=@ooooooooooooooooX  ",
"                    %<tjjt<%                    ",
"                     &-33-&                     ",
"                      @$$@                      ",
"                                                ",
"                                                ",
"                                                ",
"                                                ",
"                                                ",
"                                                "
};
