/* XPM */
static char *epg_qed[] = {
/* columns rows colors chars-per-pixel */
"48 48 195 2 ",
"   c #060606",
".  c #000000",
"X  c #000000",
"o  c #000000",
"O  c #010101",
"+  c black",
"@  c #000000",
"#  c #000000",
"$  c #000000",
"%  c #000000",
"&  c #000000",
"*  c black",
"=  c black",
"-  c black",
";  c black",
":  c #000000",
">  c #8B8B8B",
",  c #828282",
"<  c #898989",
"1  c #000000",
"2  c #050505",
"3  c black",
"4  c black",
"5  c black",
"6  c #000000",
"7  c black",
"8  c #ACACAC",
"9  c #FFFFFF",
"0  c #FFFFFF",
"q  c black",
"w  c black",
"e  c black",
"r  c black",
"t  c black",
"y  c #000000",
"u  c black",
"i  c black",
"p  c black",
"a  c black",
"s  c #000000",
"d  c black",
"f  c #000000",
"g  c black",
"h  c black",
"j  c black",
"k  c black",
"l  c black",
"z  c black",
"x  c black",
"c  c black",
"v  c black",
"b  c #000000",
"n  c black",
"m  c #000000",
"M  c black",
"N  c black",
"B  c black",
"V  c black",
"C  c black",
"Z  c black",
"A  c black",
"S  c black",
"D  c black",
"F  c black",
"G  c #000000",
"H  c black",
"J  c black",
"K  c black",
"L  c black",
"P  c black",
"I  c #010101",
"U  c black",
"Y  c #090909",
"T  c black",
"R  c #080808",
"E  c black",
"W  c #020202",
"Q  c black",
"!  c #000000",
"~  c black",
"^  c #020202",
"/  c #040404",
"(  c #0C0C0C",
")  c #010101",
"_  c black",
"`  c black",
"'  c #030303",
"]  c #060606",
"[  c #0F0F0F",
"{  c #080808",
"}  c #090909",
"|  c #0B0B0B",
" . c #0E0E0E",
".. c #0F0F0F",
"X. c #0F0F0F",
"o. c #0E0E0E",
"O. c #111111",
"+. c #111111",
"@. c #141414",
"#. c #111111",
"$. c #121212",
"%. c #101010",
"&. c #101010",
"*. c #111111",
"=. c #121212",
"-. c #131313",
";. c #151515",
":. c #191919",
">. c #1A1A1A",
",. c #262626",
"<. c #282828",
"1. c #252525",
"2. c #262626",
"3. c #282828",
"4. c #2A2A2A",
"5. c #2A2A2A",
"6. c #2C2C2C",
"7. c #292929",
"8. c #292929",
"9. c #2A2A2A",
"0. c #2A2A2A",
"q. c #2B2B2B",
"w. c #2C2C2C",
"e. c #2C2C2C",
"r. c #393939",
"t. c #5C5C5C",
"y. c #434343",
"u. c #444444",
"i. c #454545",
"p. c #525252",
"a. c #545454",
"s. c #5A5A5A",
"d. c #5F5F5F",
"f. c #7A7A7A",
"g. c #818181",
"h. c #686868",
"j. c #6B6B6B",
"k. c #6E6E6E",
"l. c #7A7A7A",
"z. c #7A7A7A",
"x. c #7E7E7E",
"c. c #7B7B7B",
"v. c #7D7D7D",
"b. c #7C7C7C",
"n. c #808080",
"m. c #808080",
"M. c #808080",
"N. c #818181",
"B. c #7A7A7A",
"V. c #7B7B7B",
"C. c #7A7A7A",
"Z. c #7C7C7C",
"A. c #7C7C7C",
"S. c #797979",
"D. c #787878",
"F. c #7F7F7F",
"G. c #818181",
"H. c #7F7F7F",
"J. c #828282",
"K. c #818181",
"L. c #818181",
"P. c #848484",
"I. c #808080",
"U. c #9A9A9A",
"Y. c #B8B8B8",
"T. c #ADADAD",
"R. c #C3C3C3",
"E. c #C5C5C5",
"W. c #CACACA",
"Q. c #C8C8C8",
"!. c #D2D2D2",
"~. c #CFCFCF",
"^. c #D2D2D2",
"/. c #D4D4D4",
"(. c #D5D5D5",
"). c #D2D2D2",
"_. c #D3D3D3",
"`. c #D5D5D5",
"'. c #D5D5D5",
"]. c #D4D4D4",
"[. c #D6D6D6",
"{. c #D8D8D8",
"}. c #FCFCFC",
"|. c #FFFFFF",
" X c #FFFFFF",
".X c #EBEBEB",
"XX c #EBEBEB",
"oX c #EBEBEB",
"OX c #EEEEEE",
"+X c #EFEFEF",
"@X c #F0F0F0",
"#X c #EEEEEE",
"$X c #F0F0F0",
"%X c None",
"&X c #FFFFFF",
/* pixels */
"                                                                                                ",
"                                                                                                ",
"                                                                                                ",
"                                                                                                ",
"                                                                                                ",
"                                                                                                ",
"                                                                                                ",
"                        * +                                                                     ",
"                        V l             + +                                                     ",
"                      + J M       1 l V G J D b y *                                             ",
"                      + J b   7 A E  .a.C.J.s.` ~ J i                                           ",
"                      + J b 1 Y y.C.l.C.J.J.C.C.C.a.( V 7 +                                     ",
"                      + J b 8 Y.$X&X^. .` ` 7.+X&X&XU. .~ G c d y e e 1                         ",
"                      + J b 9 |.&X&X~.$.` ` 7.+X&X&X^.$.` ` ` >.$.O. .E h                       ",
"                      + J b 9 |.&X&X^. .` ` 7.+X&X&X^. .` ` 1.~.^.^.T. .V                       ",
"                      + J b , g.J.C.C.l.C.C.C.C.C.C.C.C.C.C.C.J.J.J.C.7.V                       ",
"                      + J b : E ` ` 7.+X&X&X^.$.` ` 1.+X&X&X^.$.` ` 1.y.V                       ",
"                      + J b : E ` ` 7.+X&X&X^.$.` ` 7.+X&X&X^.$.` ` 7.y.V                       ",
"                      + J b : E ` ` 7.+X&X&X^.$.` ` 1.+X&X&X^.$.` ` 1.y.V                       ",
"                      + J b , g.C.C.l.C.J.J.C.C.C.C.l.C.J.C.C.C.C.C.l.7.V                       ",
"                      + J b 9 |.&X&X^. .` ` 7.+X&X&X^. .` ` 7.+X&X&X^.$.V                       ",
"                      + J b 9 |.&X&XR. .` ` 1.{.&X&X^.$.` ` 7.+X&X&X^.$.V                       ",
"                      + J b 9 |.~.k.7.~ E E ~ 7.k.R.~.$.` ` 7.+X&X&X^.$.V                       ",
"                      + J b , t.$.J x e : : e x J $.r.7.s.C.C.J.J.J.C.7.V                       ",
"                      + J b 1 J h *             * i A E 7.k.J. .` ` >.7.N                       ",
"                      + J b   +                       1 l D U ~ ` ` ` I e                       ",
"                      + J b                               + - e i d y =                         ",
"                      + J b                                                                     ",
"                      + J b                                                                     ",
"                      + J b                                                                     ",
"                      + J b                                                                     ",
"                      + J b                                                                     ",
"                      + J b                                                                     ",
"                      + J b                                                                     ",
"                      + J b                                                                     ",
"                      + J b                                                                     ",
"                      + J b                                                                     ",
"                      + J b                                                                     ",
"                      + J M                                                                     ",
"                      + J b                                                                     ",
"                        i 7                                                                     ",
"                                                                                                ",
"                                                                                                ",
"                                                                                                ",
"                                                                                                ",
"                                                                                                ",
"                                                                                                ",
"                                                                                                "
};
