/* XPM */
static char *epg_find[] = {
/* columns rows colors chars-per-pixel */
"48 48 75 1 ",
"  c #010101",
". c #000000",
"X c #000000",
"o c black",
"O c black",
"+ c black",
"@ c black",
"# c black",
"$ c black",
"% c black",
"& c black",
"* c black",
"= c black",
"- c #000000",
"; c #020202",
": c #090909",
"> c #181919",
", c #20201F",
"< c #172228",
"1 c #1A2930",
"2 c #262626",
"3 c #393939",
"4 c #334B57",
"5 c #37525F",
"6 c #454545",
"7 c None",
"8 c #605F5F",
"9 c #596165",
"0 c #6B6B6A",
"q c #787878",
"w c #53798D",
"e c #598298",
"r c #6895AD",
"t c #7896A6",
"y c #78AECA",
"u c #888887",
"i c #908F8E",
"p c #9A9999",
"a c #A09F9E",
"s c #A5A5A4",
"d c #B2B2B2",
"f c #BCBCBC",
"g c #83BDDB",
"h c #84C0DF",
"j c #8AC8E8",
"k c #91D2F5",
"l c #92D5F7",
"z c #99D6F6",
"x c #99D7F7",
"c c #92D5F8",
"v c #93D5F8",
"b c #94D6F9",
"n c #B5D3E2",
"m c #A7DBF7",
"M c #AADDF7",
"N c #A3DCFB",
"B c #AADDF9",
"V c #BBE5FB",
"C c #BEE5F9",
"Z c #D9D9D9",
"A c #DBDBDB",
"S c #C5EAFD",
"D c #D4F0FF",
"F c #ECECEC",
"G c #E1F3FC",
"H c #E5F5FD",
"J c #E9F6FD",
"K c #EDF8FD",
"L c #F0F0F0",
"P c #F3F4F4",
"I c #FBFBFB",
"U c #F8FCFE",
"Y c #F9FFFF",
"T c #FEFFFF",
"R c #FFFFFF",
/* pixels */
"                                                ",
"                                                ",
"                                                ",
"                                                ",
"                                                ",
"                                                ",
"                          XO@#@O.               ",
"                        O&;>22>:-$X             ",
"                      X%:6uppppp02;@            ",
"                     X=2up72>>>30s0:$           ",
"                    .*2p0>3udfs022uq:#          ",
"                    $>p7>pLRRRRRA7>uq;O         ",
"                   o;qq>sRRRRRRRRL9>p3&         ",
"                   $2a>qRRRRRRRRRRn17u;o        ",
"                   =7q>ARRRRRRRRRRSw>p2#        ",
"                  .;u77RRRRRRRRRRRCy>u6%        ",
"                  X;u30RRRRRRRRRRRBg<q7&        ",
"                  X;u30RRRRRRRRRRGzh<q7&        ",
"                  .-u77RRRRRRRRRRCky>u6%        ",
"                   *7q>ARRRRRRRRGzvw>p2@        ",
"                   #2a>qRRRRRRRKmvg17u;o        ",
"                   X;qq>sRRRRRJMvj5>a3&         ",
"                    $>p7>uFRRDNky4>u0;o         ",
"                    .*2p0>3qtre5>2pq:#          ",
"                     X*2up72>>>3qs8:$           ",
"                    . .%:3qppppp02-@            ",
"                   .&&o O&;:>2>:-$X             ",
"                   #::;#  XO@@+o.               ",
"                  o;23>:+                       ",
"                  &:33>-X                       ",
"                 @:262:+                        ",
"                X->33:&                         ",
"                %:33>;X                         ",
"               +:262:#                          ",
"              .=>33>&                           ",
"              $:362;o                           ",
"             O:263:$                            ",
"             *>33>=.                            ",
"            X;262:O                             ",
"             *:>:%                              ",
"             X&=%.                              ",
"               .                                ",
"                                                ",
"                                                ",
"                                                ",
"                                                ",
"                                                ",
"                                                "
};
