/* XPM */
static char *epg_home[] = {
/* columns rows colors chars-per-pixel */
"48 48 193 2 ",
"   c #818180",
".  c #010101",
"X  c black",
"o  c black",
"O  c #000000",
"+  c black",
"@  c #000000",
"#  c #000000",
"$  c black",
"%  c black",
"&  c black",
"*  c black",
"=  c #000000",
"-  c #000000",
";  c #010101",
":  c #000000",
">  c #000000",
",  c black",
"<  c black",
"1  c black",
"2  c black",
"3  c black",
"4  c black",
"5  c #000000",
"6  c black",
"7  c black",
"8  c black",
"9  c black",
"0  c black",
"q  c black",
"w  c black",
"e  c black",
"r  c black",
"t  c black",
"y  c black",
"u  c black",
"i  c #000000",
"p  c black",
"a  c black",
"s  c black",
"d  c black",
"f  c black",
"g  c black",
"h  c black",
"j  c black",
"k  c black",
"l  c #000000",
"z  c #000000",
"x  c black",
"c  c #000000",
"v  c #030303",
"b  c #040404",
"n  c #333332",
"m  c #353434",
"M  c #CCCBCA",
"N  c #000000",
"B  c #000000",
"V  c black",
"C  c black",
"Z  c black",
"A  c black",
"S  c black",
"D  c #C9C8C7",
"F  c #B5B4B3",
"G  c #9A9A99",
"H  c black",
"J  c black",
"K  c #000000",
"L  c #000000",
"P  c black",
"I  c black",
"U  c black",
"Y  c black",
"T  c black",
"R  c black",
"E  c black",
"W  c black",
"Q  c black",
"!  c black",
"~  c black",
"^  c #000000",
"/  c black",
"(  c #000000",
")  c black",
"_  c #000000",
"`  c black",
"'  c black",
"]  c black",
"[  c black",
"{  c black",
"}  c black",
"|  c black",
" . c #3D3D3C",
".. c black",
"X. c black",
"o. c black",
"O. c black",
"+. c black",
"@. c #000000",
"#. c #000000",
"$. c #000000",
"%. c #000000",
"&. c #000000",
"*. c #020202",
"=. c #070707",
"-. c #080808",
";. c #131313",
":. c #151515",
">. c #171716",
",. c #181818",
"<. c #181818",
"1. c #181818",
"2. c #191918",
"3. c #191918",
"4. c #1F1F1F",
"5. c #2C2C2B",
"6. c #212121",
"7. c #232323",
"8. c #242323",
"9. c #3B3A3A",
"0. c #3B3A3A",
"q. c #3B3B3B",
"w. c #3D3D3C",
"e. c #3D3D3C",
"r. c #3D3D3D",
"t. c #3E3D3D",
"y. c #3E3E3E",
"u. c #3F3E3E",
"i. c #3F3F3F",
"p. c #403F3F",
"a. c #40403F",
"s. c #404040",
"d. c #414140",
"f. c #414141",
"g. c #424141",
"h. c #444444",
"j. c #454444",
"k. c #454544",
"l. c #474747",
"z. c #484848",
"x. c #494949",
"c. c #4A4A4A",
"v. c #4C4B4B",
"b. c #4C4C4C",
"n. c #4E4D4D",
"m. c #4F4E4E",
"M. c #504F4F",
"N. c #515050",
"B. c #525151",
"V. c #535252",
"C. c #5F5E5E",
"Z. c #5F5F5E",
"A. c #60605F",
"S. c #646363",
"D. c #656464",
"F. c #656564",
"G. c #807F7F",
"H. c #848383",
"J. c #B1B0AF",
"K. c #B2B1B0",
"L. c #B3B2B1",
"P. c #B4B3B2",
"I. c #B5B4B3",
"U. c #B9B8B7",
"Y. c #B5B5B4",
"T. c #B6B5B4",
"R. c #B9B8B7",
"E. c #BAB9B8",
"W. c #BAB9B9",
"Q. c #BBBAB9",
"!. c #BBBBBA",
"~. c #BCBBBA",
"^. c #BDBCBB",
"/. c #C2C1C0",
"(. c #BEBDBC",
"). c #BFBEBE",
"_. c #BFBFBE",
"`. c #C0BFBE",
"'. c #C2C1C0",
"]. c #C1C0BF",
"[. c #C4C3C2",
"{. c #C2C1C0",
"}. c #C3C2C1",
"|. c #C4C3C2",
" X c #D3D2D1",
".X c #CCCBCA",
"XX c #CECDCC",
"oX c #CFCECD",
"OX c #D2D1D0",
"+X c #D0CFCE",
"@X c #D1D0CF",
"#X c None",
"$X c #D3D2D1",
/* pixels */
"                                                                                                ",
"                                                                                                ",
"                                                                                                ",
"                                                                                                ",
"                                              2 2                                               ",
"                                            w ` ` w                                             ",
"                                          7 ` y.g...w                                           ",
"                                        7 ` g.E.`.g...w                                         ",
"                                      7 ` g.E.#X#XE.x...y                                       ",
"                                    7 ` g.E.#X+X+X#X`.x...y                                     ",
"                                  7 ` g.E.#X+X+X+X+X#X].x...y                                   ",
"                                7 ` g.E.#X+X+X+X+X+X+X#X].x...y                                 ",
"                              7 ` p.E.#X+X+X+X+X+X+X+X+X#X].x...y                               ",
"                            7 ` y.E.#X+X+X+X+X+X+X+X+X+X+X#X{.x...y                             ",
"                          7 ` y.E.#X+X+X+X+X+X+X+X+X+X+X+X+X#X{.x...y                           ",
"                        7 ` y.E.#X+X+X+X+X+X+X+X+X+X+X+X+X+X+X#X{.M...g                         ",
"                      7 _ y.E.#X+X+X+X+X+X+X+X+X+X+X+X+X+X+X+X+X#X{.N...g                       ",
"                    7 _ y.E.#X+X+X+X+X+X+X+X+X+X+X+X+X+X+X+X+X+X+X#X{.N...g                     ",
"                  7 ` y.R.#X+X+X+X+X+X+X+X+X+X+X+X+X+X+X+X+X+X+X+X+X#X{.N.%.g                   ",
"                7 _ 5.L.#X+X+X+X+X+X+X+X+X+X+X+X+X+X+X+X+X+X+X+X+X+X+X#X{. ...g                 ",
"              7 ` Y G .X+X+X+X+X+X+X+X+X+X+X+X+X+X+X+X+X+X+X+X+X+X+X+X@X+XF H %.g               ",
"            7 ` Q > M `..X+X+X+X+X+X+X+X+X+X+X+X+X+X+X+X+X+X+X+X+X+X+X+X].D % I %.z             ",
"          7 _ Q >   n y.E.@X+X+X+X+X+X+X+X+X+X+X+X+X+X+X+X+X+X+X+X+X@XE.y.m   % H %.z           ",
"        : ^ Q >     g :.L.#X+X+X+X+X+X+X+X+X+X+X+X+X+X+X+X+X+X+X+X+X#XL.:.z     % H ( >         ",
"          y >       g :.L.#X+X+X+X+X+X+X+X+X+X+X+X+X+X+X+X+X+X+X@X@X#XL.4.z       % 2           ",
"                    g :.L.#X+X+X+X+X+X+X@X@X@X@X@X@X@X@X+X+X+X+X@X@X#XL.4.z                     ",
"                    g :.L.#X+X+X+X+X+X.X`.E.`.`.`.`.E.`..X+X+X+X@X@X#XL.4.z                     ",
"                    g :.L.#X+X+X+X+X#XH.8.8.8.8.8.8.8.8.G.#X+X+X@X@X#XL.4.z                     ",
"                    g :.L.#X+X+X+X+X#XS.` Z V V V V Z ` C.#X+X+X.X.X@XL.4.z                     ",
"                    g :.L.#X+X+X+X+X#XS.^             Q A.#X+X+X.X.X#XL.4.z                     ",
"                    g :.L.#X+X+X+X+X#XS.^ %         % Q A.#X+X+X.X.X@XL.4.z                     ",
"                    g :.L.#X+X+X+X+X#XS.^ %         % Q A.#X+X+X+X+X@XL.4.z                     ",
"                    g :.L.#X+X+X+X+X#XS.^ %         % Q A.#X+X+X+X+X@XL.4.z                     ",
"                    g :.L.#X+X+X+X+X#XS.^ %         % Q A.#X+X+X+X+X#XL.4.z                     ",
"                    g :.L.#X+X+X+X+X#XS.^ %         % Q S.#X+X+X+X+X#XL.4.z                     ",
"                    g :.L.#X+X+X+X@X#XS.^ %         % Q S.#X+X+X+X+X#XL.4.z                     ",
"                    g :.L.#X+X+X+X+X#XS.^ %         % Q A.#X+X+X+X+X#XL.4.z                     ",
"                    g :.L.#X+X+X+X+X#XS.^ %         % Q A.#X+X+X+X+X#XL.4.z                     ",
"                    g :.J.+X.X.X.X.X+XS.^ %         % Q C.+X.X.X.X.X+XL.4.z                     ",
"                    w =.y.g.g.g.g.g.g.8.^ %         % Q 4.g.g.g.g.g.g.y.-.y                     ",
"                    % Z I I I I I I I I N             N I I I I I I I I Z %                     ",
"                                                                                                ",
"                                                                                                ",
"                                                                                                ",
"                                                                                                ",
"                                                                                                ",
"                                                                                                ",
"                                                                                                "
};
