/* XPM */
static char *epg_interrupt[] = {
/* columns rows colors chars-per-pixel */
"48 48 190 2 ",
"   c #AC2620",
".  c black",
"X  c black",
"o  c black",
"O  c black",
"+  c black",
"@  c black",
"#  c black",
"$  c black",
"%  c black",
"&  c black",
"*  c black",
"=  c black",
"-  c black",
";  c black",
":  c black",
">  c black",
",  c black",
"<  c black",
"1  c black",
"2  c #110403",
"3  c #120403",
"4  c #130404",
"5  c #180504",
"6  c #190504",
"7  c #1A0504",
"8  c #1B0504",
"9  c #1C0605",
"0  c #350B09",
"q  c #380C09",
"w  c #380C0A",
"e  c #390C0A",
"r  c #A7251F",
"t  c #A8251F",
"y  c #AA261F",
"u  c #AB2620",
"i  c #B62C25",
"p  c #B62C26",
"a  c #B62D26",
"s  c #B82E27",
"d  c #B92E27",
"f  c #B9312A",
"g  c #B9322B",
"h  c #BB322B",
"j  c #BC322B",
"k  c #BB332C",
"l  c #BB332D",
"z  c #BD332D",
"x  c #BD342E",
"c  c #BD352E",
"v  c #D12A22",
"b  c #D12B23",
"n  c #D12C23",
"m  c #D12C24",
"M  c #D22D25",
"N  c #D22E26",
"B  c #D22F26",
"V  c #D22F27",
"C  c #D23028",
"Z  c #D23129",
"A  c #D33129",
"S  c #D3312A",
"D  c #D3322A",
"F  c #D3332B",
"G  c #D3332C",
"H  c #D3342C",
"J  c #D3362E",
"K  c #D4372F",
"L  c #D43931",
"P  c #D43A32",
"I  c #D43A33",
"U  c #D53C35",
"Y  c #D53E36",
"T  c #D53E37",
"R  c #D64039",
"E  c #D64139",
"W  c #D6413A",
"Q  c #D6423B",
"!  c #D6433C",
"~  c #D6443C",
"^  c #D7453D",
"/  c #D7453E",
"(  c #D74740",
")  c #D84942",
"_  c #D84A43",
"`  c #D84B44",
"'  c #D84C46",
"]  c #D84D46",
"[  c #D94D46",
"{  c #D95049",
"}  c #D9504A",
"|  c #DA554E",
" . c #DA564F",
".. c #DA5650",
"X. c #DB5851",
"o. c #DD6059",
"O. c #DE645E",
"+. c #DE6761",
"@. c #DF6C66",
"#. c #E06D68",
"$. c #E06F69",
"%. c #E37C77",
"&. c #E4837E",
"*. c #E58580",
"=. c #E58782",
"-. c #E58884",
";. c #E58984",
":. c #E58985",
">. c #E68985",
",. c #E68A85",
"<. c #E98A85",
"1. c #E98A86",
"2. c #E68D88",
"3. c #E68D89",
"4. c #E78E89",
"5. c #EA8E89",
"6. c None",
"7. c #EA938F",
"8. c #E8948F",
"9. c #E89490",
"0. c #EA9490",
"q. c #E89692",
"w. c #E99793",
"e. c #E99995",
"r. c #EB9894",
"t. c #E99A96",
"y. c #E99B97",
"u. c #EA9C98",
"i. c #EAA09C",
"p. c #EBA19D",
"a. c #EBA19E",
"s. c #EBA29E",
"d. c #EBA5A1",
"f. c #ECA5A2",
"g. c #ECA7A3",
"h. c #ECA7A4",
"j. c #ECA8A5",
"k. c #ECA9A6",
"l. c #EDACA9",
"z. c #EDADAA",
"x. c #EDAEAA",
"c. c #EDAEAB",
"v. c #EEAEAB",
"b. c #EEAFAC",
"n. c #EEB1AD",
"m. c #EEB1AE",
"M. c #EFB3B1",
"N. c #EFB5B2",
"B. c #F1BEBB",
"V. c #F3C7C4",
"C. c #F3C8C6",
"Z. c #F3C9C7",
"A. c #F4CAC8",
"S. c #F4CBC9",
"D. c #F4CCCA",
"F. c #F5CFCD",
"G. c #F6CFCD",
"H. c #F5D1CF",
"J. c #F7D1CF",
"K. c #F7D1D0",
"L. c #F5D2D0",
"P. c #F5D3D1",
"I. c #F7D2D0",
"U. c #F7D3D1",
"Y. c #F6D4D2",
"T. c #F7D4D2",
"R. c #F7D5D3",
"E. c #F6D5D4",
"W. c #F7D5D4",
"Q. c #F6D7D5",
"!. c #F7D8D6",
"~. c #F7DAD9",
"^. c #F7DBD9",
"/. c #F7DCDA",
"(. c #F7DCDB",
"). c #F8DDDC",
"_. c #F8DEDD",
"`. c #F8DFDD",
"'. c #F9E1E0",
"]. c #F9E2E1",
"[. c #FAE6E5",
"{. c #FAE7E6",
"}. c #FAE8E7",
"|. c #FBEBEA",
" X c #FBECEB",
".X c #FBEDEC",
"XX c #FBEEEE",
"oX c #FCF0EF",
"OX c #FCF0F0",
"+X c #FCF1F0",
/* pixels */
"                                                                                                ",
"                                                                                                ",
"                                                                                                ",
"                                                                                                ",
"                                                                                                ",
"                                                                                                ",
"                                O * * * * * * * * * * * * * * O                                 ",
"                              # , 4 9 9 9 9 9 9 9 9 9 9 9 9 4 , #                               ",
"                            # < q u x x x x x x x x x x x x y q < #                             ",
"                          # < q s 6.R.R.R.R.R.R.R.R.R.R.R.R.6.s q < #                           ",
"                        # < q s w.XXl.w.w.w.w.w.w.w.w.w.w.l.XXr.s q < #                         ",
"                      # < q s r.OX>.Z N N N N N N N N N N Z >.OXr.s q < #                       ",
"                    # < q s r.OX>.Z N N N N N N N N N N N N Z >.OXr.s q < #                     ",
"                  # < q s r.OX>.Z N N N N N N N N N N N N N N Z >.OXr.s q < #                   ",
"                # < q s r.OX>.Z N N N N N N N N N N N N N N N N Z >.OXr.s q < #                 ",
"              # < q s r.OX>.Z N N N N N N N N N N N N N N N N N N Z >.OXr.s q < #               ",
"            O , q s r.OX>.Z N N N N N N N N N N N N N N N N N N N N Z >.OXr.s q , O             ",
"            % 4 u 6.oX>.Z N N N N N N N N N N N N N N N N N N N N N N Z >.oX6.y 4 %             ",
"            * 9 x R.l.Z N N N N N N N N N N N N N N N N N N N N N N N N Z l.R.x 9 *             ",
"            * 9 x R.r.N N N N N N N N N N N N N N N N N N N N N N N N N N r.R.x 9 *             ",
"            * 9 x R.r.N N N Z W W Z N P _ _ W Z N P W Z N Z W _ W Z N N N r.R.x 9 *             ",
"            * 9 x R.r.N N Z >.).).>.P N.}.{.D.W @.R.{.i.P _ R.{.{.8.Z N N r.R.x 9 *             ",
"            * 9 x R.r.N N  .XXl.d.~._ o.Z.).$._ ~.B.w.XX%.X.oXr.d.XX .N N r.R.x 9 *             ",
"            * 9 x R.r.N N W R.R.l.&.Z N d.Z.N  .XX+.Z D.i.X.OXZ.J.~.W N N r.R.x 9 *             ",
"            * 9 x R.r.N N Z *.l.!.R.W N d.Z.Z ..XX+.Z D.u.X.OXD.l.o.N N N r.R.x 9 *             ",
"            * 9 x R.r.N N _ ~.i.N.}._ N j.D.Z W ~.B.8.XX%.X.XXo.N N N N N r.R.x 9 *             ",
"            * 9 x R.r.N N Z 3.).~.*.Z N 3.j.Z N @.R.{.i.P _ V. .N N N N N r.R.x 9 *             ",
"            * 9 x R.r.N N N Z W W N N N K P N N N P W Z N Z P Z N N N N N r.R.x 9 *             ",
"            * 9 x R.r.N N N N N N N N N N N N N N N N N N N N N N N N N N r.R.x 9 *             ",
"            * 9 x J.l.Z N N N N N N N N N N N N N N N N N N N N N N N N Z l.J.x 9 *             ",
"            % 4 y 1.oX3.Z N N N N N N N N N N N N N N N N N N N N N N Z 3.oX1.y 4 %             ",
"            O , 0 a w.OX3.Z N N N N N N N N N N N N N N N N Z V N N Z 3.OX8.a 0 , O             ",
"              # , 0 a 8.OX3.Z N N N N N N N N N N N N N N N N N N Z 3.OXw.a 0 , #               ",
"                # , 0 a 8.OX3.Z N N N N N N N N N N N N N N N N Z 3.OXw.a 0 , #                 ",
"                  # , 0 a 8.OX3.Z N N N N N N N N N N N N N N Z 3.OXw.a 0 , #                   ",
"                    # , 0 a 8.OX3.Z N N N N N N N N N N N N Z 3.OXw.a 0 , #                     ",
"                      # , 0 a 8.OX3.Z N N N N N N N N N N Z 3.OXw.a 0 , #                       ",
"                        # , 0 a 8.XXn.r.u.u.u.u.u.u.u.u.r.n.XX8.a 0 , #                         ",
"                          # , 0 a 1.D.J.J.J.R.R.R.R.R.R.J.D.1.a 0 , #                           ",
"                            # , 0 r x x x x x x x x x x x x r 0 , #                             ",
"                              # , 4 9 9 9 4 4 4 4 4 4 4 9 9 4 , #                               ",
"                                O % * * % % % % % % % % * * % O                                 ",
"                                                                                                ",
"                                                                                                ",
"                                                                                                ",
"                                                                                                ",
"                                                                                                ",
"                                                                                                "
};
