/* XPM */
static char *epg_undo[] = {
/* columns rows colors chars-per-pixel */
"24 24 4 1 ",
"  c black",
". c #870D0D",
"X c None",
"o c #870D0D",
/* pixels */
"                        ",
"                        ",
"                        ",
"                        ",
"                        ",
"               .Xo      ",
"             Xoooo      ",
"           Xoooooo      ",
"         Xoooooooo      ",
"       Xoooooooooo      ",
"     Xoooooooooooo      ",
"    oooooooooooooo      ",
"     Xoooooooooooo      ",
"       Xoooooooooo      ",
"         Xoooooooo      ",
"           Xoooooo      ",
"             Xoooo      ",
"               .Xo      ",
"                        ",
"                        ",
"                        ",
"                        ",
"                        ",
"                        "
};
