/* XPM */
static char *epg_prooftree[] = {
/* columns rows colors chars-per-pixel */
"24 24 37 1 ",
"  c black",
". c blue",
"X c brown",
"o c brown",
"O c blue",
"+ c brown",
"@ c brown",
"# c brown",
"$ c brown",
"% c brown",
"& c brown",
"* c blue",
"= c blue",
"- c blue",
"; c blue",
": c blue",
"> c blue",
", c blue",
"< c blue",
"1 c brown",
"2 c brown",
"3 c brown",
"4 c brown",
"5 c brown",
"6 c brown",
"7 c brown",
"8 c brown",
"9 c brown",
"0 c #A52A2A",
"q c brown",
"w c blue",
"e c blue",
"r c blue",
"t c blue",
"y c blue",
"u c None",
"i c blue",
/* pixels */
"                        ",
"                        ",
"          q             ",
"          q             ",
"          q             ",
"          qqqqq         ",
"          q             ",
"          q             ",
"          q             ",
"           = #+         ",
"          we 16+        ",
"         ,t* +33#       ",
"        :u;   +69#      ",
"       ;y:     +40#     ",
"       r<        32     ",
"  i    =         q&     ",
"  i              q      ",
"  i              q      ",
"  iiiii          qqqqq  ",
"  i              q      ",
"  i              q      ",
"  i              q      ",
"                        ",
"                        "
};
