/* XPM */
static char *epg_abort[] = {
/* columns rows colors chars-per-pixel */
"24 24 12 1 ",
"  c black",
". c #870D0D",
"X c #870D0D",
"o c #870D0D",
"O c #860C0C",
"+ c #870D0D",
"@ c #860C0C",
"# c #860C0C",
"$ c #860C0C",
"% c None",
"& c #860C0C",
"* c #870D0D",
/* pixels */
"                        ",
"                        ",
"                        ",
"                        ",
"                        ",
"     **          @*     ",
"     **         #**     ",
"     **        $**      ",
"     **       $**       ",
"     **      #**        ",
"     **     @**         ",
"     **************     ",
"     **************     ",
"     **  @**            ",
"     ** @**             ",
"     **#**              ",
"     ****               ",
"     ***                ",
"    #**                 ",
"    %*                  ",
"                        ",
"                        ",
"                        ",
"                        "
};
